# 3ds Max Wavefront OBJ Exporter v0.97b - (c)2007 guruware
# File Created: 21.02.2014 23:44:12

mtllib BentPlane.mtl

#
# object Plane001
#

v  -86.3367 -49.5000 43.0459
v  -86.3367 -99.0000 43.0459
v  -69.1267 -99.0000 24.9894
v  -69.1267 -49.5000 24.9894
v  -48.2363 -99.0000 11.3581
v  -48.2363 -49.5000 11.3581
v  -24.7778 -99.0000 2.8778
v  -24.7778 -49.5000 2.8778
v  -0.0000 -99.0000 -0.0000
v  -0.0000 -49.5000 -0.0000
v  24.7778 -99.0000 2.8778
v  24.7778 -49.5000 2.8778
v  48.2363 -99.0000 11.3581
v  48.2363 -49.5000 11.3581
v  69.1267 -99.0000 24.9894
v  69.1267 -49.5000 24.9894
v  86.3367 -99.0000 43.0459
v  86.3367 -49.5000 43.0459
v  -86.3367 -0.0000 43.0459
v  -69.1267 -0.0000 24.9894
v  -48.2363 -0.0000 11.3581
v  -24.7778 -0.0000 2.8778
v  -0.0000 -0.0000 0.0000
v  24.7778 -0.0000 2.8778
v  48.2363 -0.0000 11.3581
v  69.1267 -0.0000 24.9894
v  86.3367 -0.0000 43.0459
v  -86.3367 49.5000 43.0459
v  -69.1267 49.5000 24.9894
v  -48.2363 49.5000 11.3582
v  -24.7778 49.5000 2.8779
v  -0.0000 49.5000 0.0000
v  24.7778 49.5000 2.8778
v  48.2363 49.5000 11.3582
v  69.1267 49.5000 24.9894
v  86.3367 49.5000 43.0459
v  -86.3367 99.0000 43.0459
v  -69.1267 99.0000 24.9894
v  -48.2363 99.0000 11.3582
v  -24.7778 99.0000 2.8779
v  -0.0000 99.0000 0.0000
v  24.7778 99.0000 2.8779
v  48.2363 99.0000 11.3582
v  69.1267 99.0000 24.9894
v  86.3367 99.0000 43.0459
# 45 vertices

vn 0.7239 -0.0000 0.6899
vn 0.6394 -0.0000 0.7688
vn 0.4462 -0.0000 0.8949
vn 0.2292 -0.0000 0.9734
vn 0.0000 -0.0000 1.0000
vn -0.0000 -0.0000 1.0000
vn -0.2292 -0.0000 0.9734
vn -0.4462 -0.0000 0.8949
vn -0.6394 -0.0000 0.7688
vn -0.7239 -0.0000 0.6899
# 10 vertex normals

vt 0.0000 0.2500 0.0000
vt 0.0000 0.0000 0.0000
vt 0.1250 0.0000 0.0000
vt 0.1250 0.2500 0.0000
vt 0.2500 0.0000 0.0000
vt 0.2500 0.2500 0.0000
vt 0.3750 0.0000 0.0000
vt 0.3750 0.2500 0.0000
vt 0.5000 0.0000 0.0000
vt 0.5000 0.2500 0.0000
vt 0.6250 0.0000 0.0000
vt 0.6250 0.2500 0.0000
vt 0.7500 0.0000 0.0000
vt 0.7500 0.2500 0.0000
vt 0.8750 0.0000 0.0000
vt 0.8750 0.2500 0.0000
vt 1.0000 0.0000 0.0000
vt 1.0000 0.2500 0.0000
vt 0.0000 0.5000 0.0000
vt 0.1250 0.5000 0.0000
vt 0.2500 0.5000 0.0000
vt 0.3750 0.5000 0.0000
vt 0.5000 0.5000 0.0000
vt 0.6250 0.5000 0.0000
vt 0.7500 0.5000 0.0000
vt 0.8750 0.5000 0.0000
vt 1.0000 0.5000 0.0000
vt 0.0000 0.7500 0.0000
vt 0.1250 0.7500 0.0000
vt 0.2500 0.7500 0.0000
vt 0.3750 0.7500 0.0000
vt 0.5000 0.7500 0.0000
vt 0.6250 0.7500 0.0000
vt 0.7500 0.7500 0.0000
vt 0.8750 0.7500 0.0000
vt 1.0000 0.7500 0.0000
vt 0.0000 1.0000 0.0000
vt 0.1250 1.0000 0.0000
vt 0.2500 1.0000 0.0000
vt 0.3750 1.0000 0.0000
vt 0.5000 1.0000 0.0000
vt 0.6250 1.0000 0.0000
vt 0.7500 1.0000 0.0000
vt 0.8750 1.0000 0.0000
vt 1.0000 1.0000 0.0000
# 45 texture coords

g Plane001
usemtl wire_113135006
s 1
f 1/1/1 2/2/1 3/3/2 4/4/2 
f 4/4/2 3/3/2 5/5/3 6/6/3 
f 6/6/3 5/5/3 7/7/4 8/8/4 
f 8/8/4 7/7/4 9/9/5 10/10/6 
f 10/10/6 9/9/5 11/11/7 12/12/7 
f 12/12/7 11/11/7 13/13/8 14/14/8 
f 14/14/8 13/13/8 15/15/9 16/16/9 
f 16/16/9 15/15/9 17/17/10 18/18/10 
f 19/19/1 1/1/1 4/4/2 20/20/2 
f 20/20/2 4/4/2 6/6/3 21/21/3 
f 21/21/3 6/6/3 8/8/4 22/22/4 
f 22/22/4 8/8/4 10/10/6 23/23/6 
f 23/23/6 10/10/6 12/12/7 24/24/7 
f 24/24/7 12/12/7 14/14/8 25/25/8 
f 25/25/8 14/14/8 16/16/9 26/26/9 
f 26/26/9 16/16/9 18/18/10 27/27/10 
f 28/28/1 19/19/1 20/20/2 29/29/2 
f 29/29/2 20/20/2 21/21/3 30/30/3 
f 30/30/3 21/21/3 22/22/4 31/31/4 
f 31/31/4 22/22/4 23/23/6 32/32/6 
f 32/32/6 23/23/6 24/24/7 33/33/7 
f 33/33/7 24/24/7 25/25/8 34/34/8 
f 34/34/8 25/25/8 26/26/9 35/35/9 
f 35/35/9 26/26/9 27/27/10 36/36/10 
f 37/37/1 28/28/1 29/29/2 38/38/2 
f 38/38/2 29/29/2 30/30/3 39/39/3 
f 39/39/3 30/30/3 31/31/4 40/40/4 
f 40/40/4 31/31/4 32/32/6 41/41/6 
f 41/41/6 32/32/6 33/33/7 42/42/7 
f 42/42/7 33/33/7 34/34/8 43/43/8 
f 43/43/8 34/34/8 35/35/9 44/44/9 
f 44/44/9 35/35/9 36/36/10 45/45/10 
# 32 polygons

