# 3ds Max Wavefront OBJ Exporter v0.97b - (c)2007 guruware
# File Created: 21.03.2014 14:34:45

mtllib ChestDiverColliders.mtl

#
# object Cylinder001
#

v  -17.1152 74.8563 4.0069
v  -18.7534 74.8563 -0.5804
v  -18.7534 79.1931 0.2713
v  -17.1152 79.1931 4.0069
v  -22.4346 74.8563 -1.4206
v  -22.4346 79.1931 -0.6054
v  -25.3866 74.8563 2.1190
v  -25.3866 74.8563 5.8948
v  -25.3866 79.1931 5.8948
v  -25.3866 79.1931 2.1190
v  -22.4346 74.8563 8.2489
v  -22.4346 79.1931 8.2489
v  -18.7534 74.8563 7.4087
v  -18.7534 79.1931 7.4087
v  -18.7534 83.5299 0.6050
v  -17.1152 83.5299 4.0069
v  -25.3866 83.5299 5.8948
v  -25.3866 83.5299 2.1190
v  -22.4346 83.5299 8.2489
v  -18.7534 83.5299 7.4087
v  -18.7534 87.8667 0.6050
v  -17.1152 87.8667 4.0069
v  -22.6720 87.8667 -0.0458
v  -22.4346 87.8667 -0.2352
v  -22.4346 87.4482 -0.2352
v  -25.3866 87.8667 5.8948
v  -25.3866 87.8667 2.1190
v  -22.4346 87.8667 8.2489
v  -18.7534 84.7660 7.4087
v  -20.4031 85.1658 7.7853
v  -18.7534 92.2036 0.6050
v  -17.1152 92.2036 4.0069
v  -22.4346 92.2036 -0.2352
v  -22.8749 88.2244 -0.3025
v  -25.3866 92.2036 5.8948
v  -25.3866 92.2036 2.1190
v  -22.4346 92.2036 8.2489
v  -18.7534 92.2036 7.4087
v  -18.7534 88.1397 7.4087
v  -18.2093 87.8667 6.2788
v  -18.7534 96.5404 0.6050
v  -17.1152 96.5404 4.0069
v  -22.4346 96.5404 -0.2352
v  -25.3866 96.5404 2.1190
v  -25.3866 96.5404 5.8948
v  -22.4346 96.5404 8.2489
v  -18.7534 96.5404 7.4087
v  -17.2641 87.3926 4.3160
v  -19.5668 88.3368 7.5944
v  -19.6908 87.8667 7.6227
v  -18.7540 85.1658 8.0526
v  -13.4009 83.3413 5.2786
v  -12.7339 86.5123 4.8338
v  -18.6862 88.3368 8.0883
v  -15.0344 83.3413 2.8292
v  -14.3674 86.5123 2.3844
v  -17.2641 84.0189 4.3160
v  -22.4346 81.8662 -0.2352
v  -20.8044 80.2761 0.1369
v  -23.5942 87.8667 -0.4768
v  -24.9547 86.8694 1.0311
v  -20.3499 85.4148 0.2406
v  -20.3499 83.5299 0.2406
v  -22.2501 80.2761 -2.0310
v  -22.8128 88.2244 -1.0817
v  -18.4115 82.1926 -1.0520
v  -20.3499 80.5079 0.2406
v  -20.0449 82.1926 -3.5015
v  -24.8348 85.9469 0.3888
v  -23.3785 83.5299 0.5176
v  -22.5511 80.7764 -1.8303
v  -22.8107 81.9049 -0.7489
v  -23.2299 82.2982 -1.3776
v  -22.3258 87.8806 -13.5662
v  -25.7350 87.8806 0.6342
v  -31.8888 82.1576 -0.8431
v  -28.4796 82.3059 -15.0436
v  -37.4555 83.7994 -2.1796
v  -29.2784 90.6506 -0.2165
v  -26.4077 91.0172 -14.9454
v  -34.0462 83.7994 -16.3800
v  -34.0915 80.1355 -1.3720
v  -34.0915 81.9049 -1.3720
v  -30.6822 81.9049 -15.5724
v  -30.6822 80.1355 -15.5724
v  -23.0523 74.8720 0.2574
v  -23.0523 79.1931 0.2574
v  -24.0362 74.8720 1.0421
v  -24.0362 79.1931 1.0421
v  -24.0362 81.9049 1.0421
v  -23.0523 81.9049 0.2574
v  -22.5511 81.9049 -1.8303
v  -33.9121 79.9401 -1.3289
v  -30.5029 79.9401 -15.5293
v  -19.8748 74.8720 -12.9777
v  -30.6822 74.8720 -15.5724
v  -34.0915 74.8720 -1.3720
v  -19.8748 82.3963 -12.9777
# 98 vertices

vn 0.9992 0.0187 0.0361
vn 0.6306 0.1469 -0.7620
vn 0.6372 0.1161 -0.7619
vn 0.9999 0.0046 0.0137
vn -0.4235 0.3089 -0.8516
vn -0.3554 0.1442 -0.9235
vn -0.8989 0.0713 -0.4322
vn -0.9010 0.0000 0.4339
vn -0.9010 -0.0000 -0.4339
vn -0.2225 0.0000 0.9749
vn 0.6235 0.0000 0.7818
vn 0.6236 0.0108 -0.7817
vn 1.0000 0.0000 0.0000
vn -0.9120 -0.0383 -0.4085
vn 0.6235 -0.0000 -0.7818
vn -0.5568 -0.4501 -0.6982
vn -0.1048 -0.1172 -0.9876
vn 0.0460 -0.0000 -0.9989
vn -0.9486 0.0650 -0.3096
vn 0.5690 0.0000 0.8223
vn 0.2225 0.0000 0.9749
vn 0.6235 0.0000 -0.7818
vn 1.0000 -0.0000 0.0000
vn -0.2095 0.0215 -0.9776
vn -0.3422 0.1372 -0.9295
vn -0.9056 0.0123 -0.4240
vn -0.2225 -0.0000 0.9749
vn 0.6235 -0.0000 0.7818
vn 0.6757 -0.0000 0.7372
vn 0.9010 0.0000 0.4339
vn -0.2225 0.0000 -0.9749
vn -0.9010 0.0000 -0.4339
vn 0.0000 -1.0000 -0.0000
vn 0.0000 1.0000 -0.0000
vn 0.2225 -0.0000 0.9749
vn -0.0566 -0.8482 0.5267
vn -0.0852 -0.8465 0.5256
vn -0.0729 -0.8834 0.4630
vn 0.4729 -0.0080 0.8811
vn 0.4669 0.0258 0.8840
vn 0.4693 0.0126 0.8830
vn 0.4749 -0.0201 0.8798
vn 0.8066 -0.2451 -0.5379
vn -0.5548 0.0000 -0.8320
vn -0.4378 0.0462 0.8979
vn -0.4813 0.1786 0.8581
vn -0.3940 0.0736 0.9162
vn -0.2239 0.0770 0.9716
vn -0.1592 0.1011 0.9821
vn 0.2010 0.9686 -0.1464
vn 0.2039 0.9695 -0.1360
vn 0.1746 0.9664 -0.1884
vn 0.1319 0.9579 -0.2551
vn 0.0042 0.9603 -0.2790
vn -0.2039 -0.9695 0.1360
vn -0.1914 -0.9674 0.1660
vn 0.1625 0.9432 -0.2897
vn -0.4561 0.0454 -0.8888
vn 0.2413 0.2184 -0.9456
vn -0.4879 0.8053 -0.3369
vn -0.8483 0.0827 -0.5231
vn 0.2225 -0.0000 -0.9749
vn 0.2225 0.0000 -0.9749
vn -0.6742 -0.5860 0.4496
vn 0.8893 0.4570 0.0139
vn 0.8462 0.5286 0.0675
vn 0.8685 0.4929 0.0521
vn 0.8707 0.4839 -0.0879
vn 0.5548 0.0000 0.8320
vn 0.4875 -0.8103 -0.3251
vn -0.7817 0.2469 -0.5727
vn -0.7970 0.2719 -0.5392
vn -0.6856 0.2942 -0.6660
vn -0.5831 0.7513 -0.3091
vn -0.4382 0.8982 -0.0349
vn 0.1281 0.1035 -0.9863
vn -0.6224 -0.0588 -0.7805
vn -0.7313 -0.5595 0.3900
vn -0.8172 -0.4977 0.2905
vn -0.8353 -0.4886 0.2521
vn -0.7622 -0.4337 0.4806
vn -0.7776 -0.4449 0.4443
vn 0.6742 0.5860 -0.4496
vn 0.7085 0.5757 -0.4080
vn 0.6471 -0.7475 0.1502
vn 0.6522 -0.7417 0.1566
vn 0.6496 -0.7446 0.1533
vn 0.6445 -0.7504 0.1469
vn -0.6396 0.7585 -0.1246
vn -0.6243 0.7745 -0.1024
vn -0.6472 0.7501 -0.1360
vn -0.6621 0.7323 -0.1590
vn -0.2334 -0.0000 0.9724
vn -0.2334 0.0000 0.9724
vn 0.5865 0.7986 0.1355
vn 0.5738 0.8073 0.1378
vn 0.5771 0.8051 0.1372
vn 0.5900 0.7961 0.1348
vn 0.2334 0.0000 -0.9724
vn 0.2409 -0.0229 -0.9703
vn 0.2526 -0.0597 -0.9657
vn 0.2603 -0.0843 -0.9619
vn -0.4739 0.8566 -0.2042
vn -0.7979 0.0331 -0.6019
vn -0.3039 0.8781 -0.3696
vn -0.6235 -0.0000 -0.7818
vn -0.6235 0.0000 -0.7818
vn -0.5569 0.0609 -0.8283
vn -0.4489 0.2217 -0.8657
vn -0.6248 0.0737 -0.7773
vn -0.6104 0.0682 -0.7891
vn -0.5581 0.0507 -0.8282
vn -0.7070 -0.6865 -0.1697
vn 0.2334 -0.0000 -0.9724
vn 0.9724 -0.0000 0.2334
vn 0.9724 0.0000 0.2334
vn 0.0526 0.9863 0.1562
vn 0.3450 0.9084 0.2361
vn 0.1730 0.9767 0.1272
vn -0.0129 0.9993 0.0347
vn -0.9724 -0.0000 -0.2334
vn -0.9724 0.0000 -0.2334
vn 0.5779 0.7973 0.1739
vn 0.0081 0.9999 0.0125
vn -0.0123 0.9999 0.0075
# 125 vertex normals

vt 0.7500 0.0000 1.0000
vt 0.8929 0.0000 1.0000
vt 0.8929 0.2000 1.0000
vt 0.7500 0.2000 1.0000
vt 1.0357 0.0000 1.0000
vt 1.0357 0.2000 1.0000
vt 0.1786 0.0000 1.0000
vt 0.3214 0.0000 1.0000
vt 0.3214 0.2000 1.0000
vt 0.1786 0.2000 1.0000
vt 0.4643 0.0000 1.0000
vt 0.4643 0.2000 1.0000
vt 0.6071 0.0000 1.0000
vt 0.6071 0.2000 1.0000
vt 0.8929 0.4000 1.0000
vt 0.7500 0.4000 1.0000
vt 0.3214 0.4000 1.0000
vt 0.1786 0.4000 1.0000
vt 0.4643 0.4000 1.0000
vt 0.6071 0.4000 1.0000
vt 0.8929 0.6000 1.0000
vt 0.7500 0.6000 1.0000
vt 0.0472 0.6000 1.0000
vt 0.0357 0.6000 1.0000
vt 0.0357 0.5807 1.0000
vt 0.3214 0.6000 1.0000
vt 0.1786 0.6000 1.0000
vt 0.4643 0.6000 1.0000
vt 0.6071 0.4570 1.0000
vt 0.5431 0.4754 1.0000
vt 0.8929 0.8000 1.0000
vt 0.7500 0.8000 1.0000
vt 1.0357 0.6000 1.0000
vt 1.0357 0.8000 1.0000
vt 0.0570 0.6165 1.0000
vt 0.0357 0.8000 1.0000
vt 0.3214 0.8000 1.0000
vt 0.1786 0.8000 1.0000
vt 0.4643 0.8000 1.0000
vt 0.6071 0.8000 1.0000
vt 0.6071 0.6126 1.0000
vt 0.6546 0.6000 1.0000
vt 0.8929 1.0000 1.0000
vt 0.7500 1.0000 1.0000
vt 1.0357 1.0000 1.0000
vt 0.1786 1.0000 1.0000
vt 0.0357 1.0000 1.0000
vt 0.3214 1.0000 1.0000
vt 0.4643 1.0000 1.0000
vt 0.6071 1.0000 1.0000
vt 0.9875 0.3887 -0.2500
vt 0.7169 0.0495 -0.2500
vt 0.2831 0.0495 -0.2500
vt 0.5000 1.0000 -0.2500
vt 0.0125 0.3887 -0.2500
vt 0.1091 0.8117 -0.2500
vt 0.8909 0.8117 -0.2500
vt 0.1091 0.8117 0.2500
vt 0.0125 0.3887 0.2500
vt 0.2831 0.0495 0.2500
vt 0.8909 0.8117 0.2500
vt 0.7169 0.0495 0.2500
vt 0.9875 0.3887 0.2500
vt 0.5000 1.0000 0.2500
vt 0.7370 0.5781 1.0000
vt 0.5756 0.6217 1.0000
vt 0.5708 0.6000 1.0000
vt 1.0000 0.0000 0.0000
vt 1.0000 0.6112 0.0000
vt 0.7809 0.4067 0.0000
vt 0.0000 0.0000 0.0000
vt 1.0000 1.0000 0.0000
vt 0.0000 1.0000 0.0000
vt 0.4825 1.0000 0.0000
vt 0.3714 0.0000 0.0000
vt 0.4925 1.0000 0.0000
vt 0.4771 0.8518 0.0000
vt 0.3888 0.0000 0.0000
vt 0.5175 1.0000 0.0000
vt 0.2577 0.6235 0.0000
vt 0.1080 0.4067 0.0000
vt 0.7370 0.4225 1.0000
vt 0.3714 1.0000 0.0000
vt 0.0000 0.5075 0.0000
vt 1.0357 0.3233 1.0000
vt 0.9725 0.2499 1.0000
vt 0.0758 0.6000 1.0000
vt 0.1577 0.5281 1.0000
vt 0.9548 0.4869 1.0000
vt 0.9548 0.4000 1.0000
vt 0.2636 0.5273 0.0000
vt 0.0000 0.1150 0.0000
vt 0.0000 0.5110 0.0000
vt 0.0593 0.5185 0.0000
vt 0.1287 0.5273 0.0000
vt 0.4658 1.0000 0.0000
vt 0.6710 0.6623 0.0000
vt 1.0000 0.1210 0.0000
vt 0.1150 0.0000 0.0000
vt 0.0000 0.1210 0.0000
vt 0.5657 0.0000 0.0000
vt 0.5033 0.8134 0.0000
vt 0.4890 1.0000 0.0000
vt 0.9548 0.2606 1.0000
vt 0.0814 0.4000 1.0000
vt 1.0357 0.5807 1.0000
vt 0.0830 1.0000 0.0000
vt 0.2700 0.7433 0.0000
vt 0.5395 0.4925 0.0000
vt 0.2700 1.0000 0.0000
vt 1.0000 0.4343 0.0000
vt 0.4658 0.0000 0.0000
vt 0.7526 0.0000 0.0000
vt 0.7526 1.0000 0.0000
vt 0.2474 0.0000 0.0000
vt 0.0000 0.0506 0.0000
vt 0.1050 0.2930 0.0000
vt 0.8950 0.2930 0.0000
vt 1.0000 0.0506 0.0000
vt 0.0656 0.0007 1.0000
vt 0.0656 0.2000 1.0000
vt 0.0357 0.2000 1.0000
vt 0.0357 0.0000 1.0000
vt 0.1132 0.0007 1.0000
vt 0.1132 0.2000 1.0000
vt 0.1132 0.3251 1.0000
vt 0.0656 0.3251 1.0000
vt 0.0357 0.3233 1.0000
vt 0.2058 0.2022 0.0000
vt 0.2700 0.0000 0.0000
vt 0.0830 0.0000 0.0000
vt 0.0000 0.0680 0.0000
vt 0.0696 0.0000 0.0000
vt 1.0000 0.7484 0.0000
vt 0.9834 0.7206 0.0000
vt 0.7962 1.0000 0.0000
vt 0.2150 1.0000 0.0000
vt 0.2150 0.8395 0.0000
vt 0.0680 0.6144 0.0000
vt 0.1388 1.0000 0.0000
vt 0.0680 1.0000 0.0000
vt 0.0680 0.0000 0.0000
vt 0.0166 0.7206 0.0000
vt 0.0000 0.7484 0.0000
vt 0.2038 1.0000 0.0000
vt 0.9304 0.0000 0.0000
vt 0.9304 0.6144 0.0000
vt 0.9304 1.0000 0.0000
vt 1.0000 0.0680 0.0000
vt 1.0000 0.1388 0.0000
vt 0.9501 0.1740 0.0000
vt 0.2038 0.0000 0.0000
vt 1.0000 0.2150 0.0000
# 153 texture coords

g Cylinder001
usemtl wire_027177148
s 8
f 1/1/1 2/2/2 3/3/3 4/4/4 
f 2/2/2 5/5/5 6/6/6 3/3/3 
f 7/7/7 8/8/8 9/9/8 10/10/9 
f 8/8/8 11/11/10 12/12/10 9/9/8 
f 11/11/10 13/13/11 14/14/11 12/12/10 
f 13/13/11 1/1/1 4/4/4 14/14/11 
f 4/4/4 3/3/3 15/15/12 16/16/13 
f 10/10/9 9/9/8 17/17/8 18/18/14 
f 9/9/8 12/12/10 19/19/10 17/17/8 
f 12/12/10 14/14/11 20/20/11 19/19/10 
f 14/14/11 4/4/4 16/16/13 20/20/11 
f 16/16/13 15/15/12 21/21/15 22/22/13 
f 23/23/16 24/24/17 25/25/18 
f 18/18/14 17/17/8 26/26/8 27/27/19 
f 17/17/8 19/19/10 28/28/10 26/26/8 
f 20/20/11 29/29/20 30/30/21 19/19/10 
f 22/22/13 21/21/15 31/31/22 32/32/23 
f 21/21/15 24/33/17 33/34/24 31/31/22 
f 24/24/17 23/23/16 34/35/25 33/36/24 
f 27/27/19 26/26/8 35/37/8 36/38/26 
f 26/26/8 28/28/10 37/39/27 35/37/8 
f 32/32/23 38/40/28 39/41/29 22/22/13 
f 22/22/13 39/41/29 40/42/30 
f 32/32/23 31/31/22 41/43/22 42/44/13 
f 31/31/22 33/34/24 43/45/31 41/43/22 
f 33/36/24 36/38/26 44/46/32 43/47/31 
f 36/38/26 35/37/8 45/48/8 44/46/32 
f 35/37/8 37/39/27 46/49/10 45/48/8 
f 37/39/27 38/40/28 47/50/11 46/49/10 
f 38/40/28 32/32/23 42/44/13 47/50/11 
s 1
f 11/51/33 8/52/33 7/53/33 1/54/33 
f 7/53/33 5/55/33 2/56/33 1/54/33 
f 13/57/33 11/51/33 1/54/33 
f 41/58/34 43/59/34 44/60/34 47/61/34 
f 44/60/34 45/62/34 46/63/34 47/61/34 
f 42/64/34 41/58/34 47/61/34 
s 8
f 48/65/30 22/22/13 40/42/30 
f 49/66/35 37/39/27 28/28/10 50/67/21 
s 2
f 51/68/36 30/69/37 29/70/38 
s 8
f 51/71/39 52/68/40 53/72/41 54/73/42 
s 16
f 52/71/43 55/68/43 56/72/43 53/73/43 
s 32
f 48/74/44 56/73/44 55/71/44 57/75/44 
s 64
f 54/72/45 49/76/46 50/77/47 51/68/48 
f 30/78/49 51/68/48 50/77/47 
s 4
f 53/68/50 56/72/51 48/79/51 40/80/52 
f 54/71/53 53/68/50 40/80/52 39/81/54 
s 8
f 30/30/21 50/67/21 28/28/10 19/19/10 
f 57/82/30 16/16/13 22/22/13 48/65/30 
f 29/29/20 20/20/11 16/16/13 57/82/30 
f 49/66/35 39/41/29 38/40/28 37/39/27 
s 2
f 57/83/55 55/73/55 52/71/56 29/70/38 
f 29/70/38 52/71/56 51/68/36 
s 4
f 39/81/54 49/84/57 54/71/53 
s 8
f 6/6/6 58/85/58 59/86/59 
f 27/27/19 60/87/60 61/88/61 
f 62/89/62 21/21/15 15/15/12 63/90/63 
s 2
f 58/91/64 64/73/64 59/92/64 
s 4
f 65/73/65 34/93/66 23/94/67 25/95/68 
s 1
f 66/72/69 62/96/69 63/97/69 67/98/69 
s 16
f 59/99/70 64/68/70 68/72/70 66/73/70 
f 59/99/70 66/73/70 67/100/70 
s 64
f 69/71/71 61/101/72 60/102/73 65/73/74 
f 60/102/73 34/103/75 65/73/74 
s 8
f 34/35/25 60/87/60 27/27/19 36/38/26 
f 34/35/25 36/38/26 33/36/24 
f 3/3/3 6/6/6 59/86/59 67/104/76 
f 15/15/12 3/3/3 67/104/76 63/90/63 
f 61/88/61 18/18/14 27/27/19 
f 61/88/61 70/105/77 18/18/14 
f 62/89/62 25/106/18 24/33/17 21/21/15 
s 2
f 71/107/64 64/73/64 58/91/64 72/108/78 
f 72/108/78 58/91/64 70/109/79 73/110/80 
f 70/109/79 61/111/81 69/72/82 73/110/80 
s 4
f 25/95/68 62/112/83 66/68/83 68/72/84 
f 25/95/68 68/72/84 65/73/65 
s 2
f 74/73/85 75/71/86 76/113/87 77/114/88 
s 4
f 78/71/89 79/68/90 80/72/91 81/73/92 
s 8
f 76/115/93 75/68/93 79/72/93 78/73/93 
f 78/73/93 82/116/94 83/117/94 76/115/93 
s 16
f 75/71/95 74/68/96 80/72/97 79/73/98 
s 32
f 84/118/99 85/119/99 81/72/100 77/113/99 
f 74/71/101 77/113/99 81/72/100 80/73/102 
s 8
f 86/120/103 87/121/104 6/122/6 5/123/5 
f 88/124/105 86/120/103 5/123/5 7/7/7 
f 88/124/105 7/7/7 10/10/9 89/125/106 
f 90/126/107 89/125/106 10/10/9 18/18/14 
f 90/126/107 18/18/14 70/105/77 91/127/107 
f 91/127/107 70/105/77 58/128/58 87/121/104 
f 58/128/58 6/122/6 87/121/104 
s 32
f 92/129/108 73/130/109 69/68/110 65/72/111 
f 92/129/108 65/72/111 68/73/112 64/71/44 
f 92/129/108 64/71/44 71/131/44 
s 8
f 83/117/94 82/116/94 93/71/94 76/115/93 
s 32
f 94/68/99 85/119/99 84/118/99 77/113/99 
s 64
f 82/119/113 78/72/113 81/73/113 85/116/113 
s 2
f 95/73/33 86/132/33 88/133/33 96/72/33 
f 97/68/33 96/72/33 88/133/33 
s 8
f 96/68/99 85/134/99 94/135/114 77/136/99 
f 77/136/99 98/73/99 95/71/99 96/68/99 
s 16
f 98/72/115 92/137/115 71/138/115 87/139/116 
f 71/138/115 72/140/116 91/141/116 87/139/116 
f 87/139/116 86/142/116 95/68/116 98/72/115 
f 93/143/94 82/144/94 97/71/94 76/145/94 
f 97/71/94 88/146/94 89/147/94 76/145/94 
f 90/148/93 76/145/94 89/147/94 
s 4
f 90/146/117 91/149/34 72/150/118 73/151/119 
f 90/146/117 73/151/119 76/152/120 
s 1
f 82/134/121 85/144/122 96/71/121 97/68/121 
s 4
f 73/151/119 92/153/123 98/72/124 76/152/120 
f 98/72/124 77/145/125 76/152/120 
# 86 polygons - 24 triangles

